<svg width="40" height="40" viewBox="0 0 40 40" fill="none" xmlns="http://www.w3.org/2000/svg">
<path d="M32.5 5.3125H28.4375V3.75C28.4375 3.50136 28.3387 3.2629 28.1629 3.08709C27.9871 2.91127 27.7486 2.8125 27.5 2.8125C27.2514 2.8125 27.0129 2.91127 26.8371 3.08709C26.6613 3.2629 26.5625 3.50136 26.5625 3.75V5.3125H13.4375V3.75C13.4375 3.50136 13.3387 3.2629 13.1629 3.08709C12.9871 2.91127 12.7486 2.8125 12.5 2.8125C12.2514 2.8125 12.0129 2.91127 11.8371 3.08709C11.6613 3.2629 11.5625 3.50136 11.5625 3.75V5.3125H7.5C6.91984 5.3125 6.36344 5.54297 5.9532 5.9532C5.54297 6.36344 5.3125 6.91984 5.3125 7.5V32.5C5.3125 33.0802 5.54297 33.6366 5.9532 34.0468C6.36344 34.457 6.91984 34.6875 7.5 34.6875H32.5C33.0802 34.6875 33.6366 34.457 34.0468 34.0468C34.457 33.6366 34.6875 33.0802 34.6875 32.5V7.5C34.6875 6.91984 34.457 6.36344 34.0468 5.9532C33.6366 5.54297 33.0802 5.3125 32.5 5.3125ZM7.5 7.1875H11.5625V8.75C11.5625 8.99864 11.6613 9.2371 11.8371 9.41291C12.0129 9.58873 12.2514 9.6875 12.5 9.6875C12.7486 9.6875 12.9871 9.58873 13.1629 9.41291C13.3387 9.2371 13.4375 8.99864 13.4375 8.75V7.1875H26.5625V8.75C26.5625 8.99864 26.6613 9.2371 26.8371 9.41291C27.0129 9.58873 27.2514 9.6875 27.5 9.6875C27.7486 9.6875 27.9871 9.58873 28.1629 9.41291C28.3387 9.2371 28.4375 8.99864 28.4375 8.75V7.1875H32.5C32.5829 7.1875 32.6624 7.22042 32.721 7.27903C32.7796 7.33763 32.8125 7.41712 32.8125 7.5V12.8125H7.1875V7.5C7.1875 7.41712 7.22042 7.33763 7.27903 7.27903C7.33763 7.22042 7.41712 7.1875 7.5 7.1875ZM32.5 32.8125H7.5C7.41712 32.8125 7.33763 32.7796 7.27903 32.721C7.22042 32.6624 7.1875 32.5829 7.1875 32.5V14.6875H32.8125V32.5C32.8125 32.5829 32.7796 32.6624 32.721 32.721C32.6624 32.7796 32.5829 32.8125 32.5 32.8125ZM17.1875 18.75V28.75C17.1875 28.9986 17.0887 29.2371 16.9129 29.4129C16.7371 29.5887 16.4986 29.6875 16.25 29.6875C16.0014 29.6875 15.7629 29.5887 15.5871 29.4129C15.4113 29.2371 15.3125 28.9986 15.3125 28.75V20.2672L14.1688 20.8391C14.0586 20.8941 13.9386 20.9268 13.8158 20.9354C13.6929 20.9441 13.5696 20.9284 13.4528 20.8894C13.336 20.8504 13.228 20.7887 13.1351 20.708C13.0421 20.6272 12.9659 20.5289 12.9109 20.4187C12.8559 20.3086 12.8232 20.1886 12.8146 20.0658C12.8059 19.9429 12.8216 19.8196 12.8606 19.7028C12.8996 19.586 12.9613 19.478 13.042 19.3851C13.1228 19.2921 13.2211 19.2159 13.3312 19.1609L15.8312 17.9109C15.9742 17.8396 16.133 17.8059 16.2926 17.8132C16.4523 17.8205 16.6074 17.8684 16.7432 17.9525C16.8791 18.0365 16.9913 18.1539 17.069 18.2935C17.1468 18.4331 17.1875 18.5902 17.1875 18.75ZM26.4953 23.3203L23.125 27.8125H26.25C26.4986 27.8125 26.7371 27.9113 26.9129 28.0871C27.0887 28.2629 27.1875 28.5014 27.1875 28.75C27.1875 28.9986 27.0887 29.2371 26.9129 29.4129C26.7371 29.5887 26.4986 29.6875 26.25 29.6875H21.25C21.0759 29.6875 20.9052 29.639 20.7571 29.5475C20.609 29.456 20.4893 29.325 20.4115 29.1693C20.3336 29.0135 20.3007 28.8392 20.3163 28.6658C20.3319 28.4924 20.3955 28.3268 20.5 28.1875L25 22.1875C25.1296 22.0172 25.2228 21.8222 25.2739 21.6144C25.325 21.4066 25.3329 21.1906 25.2971 20.9796C25.2613 20.7687 25.1825 20.5673 25.0657 20.3881C24.9488 20.2088 24.7964 20.0555 24.6179 19.9375C24.4394 19.8196 24.2386 19.7396 24.0278 19.7024C23.8171 19.6653 23.601 19.6718 23.3929 19.7216C23.1848 19.7714 22.9892 19.8635 22.8181 19.992C22.6471 20.1205 22.5042 20.2828 22.3984 20.4688C22.3425 20.5853 22.2631 20.6891 22.1652 20.7735C22.0673 20.8579 21.9529 20.9211 21.8294 20.9592C21.7058 20.9973 21.5758 21.0094 21.4473 20.9948C21.3189 20.9802 21.1948 20.9392 21.083 20.8744C20.9711 20.8095 20.8739 20.7223 20.7974 20.6181C20.7209 20.5138 20.6668 20.3949 20.6384 20.2688C20.6101 20.1426 20.6082 20.012 20.6327 19.8851C20.6573 19.7582 20.7079 19.6377 20.7812 19.5312C21.0169 19.1268 21.3326 18.7747 21.7091 18.4965C22.0856 18.2184 22.515 18.0201 22.9708 17.9138C23.4267 17.8075 23.8995 17.7954 24.3602 17.8782C24.8209 17.9611 25.2598 18.1372 25.65 18.3957C26.0403 18.6543 26.3736 18.9898 26.6296 19.3817C26.8856 19.7736 27.0588 20.2136 27.1387 20.6749C27.2185 21.1361 27.2034 21.6088 27.0941 22.064C26.9848 22.5191 26.7837 22.9472 26.5031 23.3219L26.4953 23.3203Z" fill="#FFC30D"/>
</svg>
