<svg width="40" height="40" viewBox="0 0 40 40" fill="none" xmlns="http://www.w3.org/2000/svg">
<path d="M32.5 16.6667C32.5 16.4457 32.4122 16.2337 32.2559 16.0774C32.0996 15.9211 31.8877 15.8333 31.6667 15.8333C31.4457 15.8333 31.2337 15.9211 31.0774 16.0774C30.9211 16.2337 30.8333 16.4457 30.8333 16.6667H32.5ZM9.16667 16.6667C9.16667 16.4457 9.07887 16.2337 8.92259 16.0774C8.76631 15.9211 8.55435 15.8333 8.33334 15.8333C8.11232 15.8333 7.90036 15.9211 7.74408 16.0774C7.5878 16.2337 7.5 16.4457 7.5 16.6667H9.16667ZM34.41 20.59C34.5665 20.7465 34.7787 20.8344 35 20.8344C35.2213 20.8344 35.4335 20.7465 35.59 20.59C35.7465 20.4335 35.8344 20.2213 35.8344 20C35.8344 19.7787 35.7465 19.5665 35.59 19.41L34.41 20.59ZM20 5L20.59 4.41C20.5126 4.33239 20.4206 4.27082 20.3194 4.22881C20.2182 4.1868 20.1096 4.16518 20 4.16518C19.8904 4.16518 19.7819 4.1868 19.6806 4.22881C19.5794 4.27082 19.4874 4.33239 19.41 4.41L20 5ZM4.41 19.41C4.25353 19.5665 4.16562 19.7787 4.16562 20C4.16562 20.2213 4.25353 20.4335 4.41 20.59C4.56648 20.7465 4.77871 20.8344 5 20.8344C5.2213 20.8344 5.43353 20.7465 5.59 20.59L4.41 19.41ZM11.6667 35.8333H28.3333V34.1667H11.6667V35.8333ZM32.5 31.6667V16.6667H30.8333V31.6667H32.5ZM9.16667 31.6667V16.6667H7.5V31.6667H9.16667ZM35.59 19.41L20.59 4.41L19.41 5.59L34.41 20.59L35.59 19.41ZM19.41 4.41L4.41 19.41L5.59 20.59L20.59 5.59L19.41 4.41ZM28.3333 35.8333C29.4384 35.8333 30.4982 35.3943 31.2796 34.6129C32.061 33.8315 32.5 32.7717 32.5 31.6667H30.8333C30.8333 32.3297 30.5699 32.9656 30.1011 33.4344C29.6323 33.9033 28.9964 34.1667 28.3333 34.1667V35.8333ZM11.6667 34.1667C11.0036 34.1667 10.3677 33.9033 9.8989 33.4344C9.43006 32.9656 9.16667 32.3297 9.16667 31.6667H7.5C7.5 32.7717 7.93899 33.8315 8.72039 34.6129C9.50179 35.3943 10.5616 35.8333 11.6667 35.8333V34.1667Z" fill="#FFC30D"/>
</svg>