<svg width="40" height="40" viewBox="0 0 40 40" fill="none" xmlns="http://www.w3.org/2000/svg">
<path d="M15.8883 18.5833C15.3195 19.153 15 19.925 15 20.73V25H19.2967C20.1017 25 20.875 24.68 21.445 24.11L34.1117 11.4367C34.3937 11.1547 34.6175 10.8199 34.7701 10.4514C34.9228 10.0829 35.0013 9.68801 35.0013 9.28917C35.0013 8.89033 34.9228 8.49539 34.7701 8.12692C34.6175 7.75845 34.3937 7.42366 34.1117 7.14167L32.86 5.89C32.578 5.60769 32.2431 5.38374 31.8745 5.23094C31.5058 5.07814 31.1107 4.99949 30.7117 4.99949C30.3126 4.99949 29.9175 5.07814 29.5489 5.23094C29.1802 5.38374 28.8454 5.60769 28.5633 5.89L15.8883 18.5833Z" stroke="#FFC30D" stroke-width="2.5" stroke-linecap="round" stroke-linejoin="round"/>
<path d="M35 20C35 27.0717 35 30.6067 32.8033 32.8033C30.6067 35 27.07 35 20 35C12.9283 35 9.39333 35 7.19667 32.8033C5 30.6067 5 27.07 5 20C5 12.9283 5 9.39333 7.19667 7.19667C9.39333 5 12.93 5 20 5" stroke="#FFC30D" stroke-width="2.5" stroke-linecap="round" stroke-linejoin="round"/>
</svg>
