<svg width="30" height="30" viewBox="0 0 30 30" fill="none" xmlns="http://www.w3.org/2000/svg">
<path d="M19.6875 5.62501V24.375C19.6877 24.5605 19.6327 24.7419 19.5297 24.8962C19.4267 25.0505 19.2803 25.1708 19.1089 25.2418C18.9375 25.3129 18.7489 25.3314 18.5669 25.2952C18.385 25.259 18.2178 25.1695 18.0867 25.0383L8.71172 15.6633C8.62456 15.5762 8.55541 15.4728 8.50823 15.359C8.46105 15.2452 8.43677 15.1232 8.43677 15C8.43677 14.8768 8.46105 14.7548 8.50823 14.641C8.55541 14.5272 8.62456 14.4238 8.71172 14.3367L18.0867 4.96172C18.2178 4.83046 18.385 4.74106 18.5669 4.70482C18.7489 4.66859 18.9375 4.68715 19.1089 4.75817C19.2803 4.82919 19.4267 4.94947 19.5297 5.10377C19.6327 5.25808 19.6877 5.43948 19.6875 5.62501Z" fill="#FFC30D"/>
</svg>