<svg width="192" height="192" viewBox="0 0 192 192" fill="none" xmlns="http://www.w3.org/2000/svg">
<rect width="192" height="192" fill="#2E2E2E"/>
<path d="M37.793 142.52L55 141.68L54.8047 127.168L59.1602 127.48L59.3945 154.316L55.1953 154.648L55.0781 145.312L37.832 146.074L37.9688 154.844L33.8867 155L33.5156 127.07L37.6367 126.875L37.793 142.52ZM80.8594 156.23L81.1328 153.477C79.5443 154.492 77.9818 155.228 76.4453 155.684C74.9219 156.139 73.4961 156.367 72.168 156.367C71.2305 156.367 70.319 156.243 69.4336 155.996C68.5612 155.762 67.7865 155.397 67.1094 154.902C66.4453 154.395 65.9049 153.757 65.4883 152.988C65.0846 152.207 64.8828 151.289 64.8828 150.234C64.8828 149.18 65.0391 148.236 65.3516 147.402C65.6641 146.569 66.0938 145.833 66.6406 145.195C67.1875 144.557 67.832 144.01 68.5742 143.555C69.3164 143.099 70.1107 142.728 70.957 142.441C71.8164 142.155 72.7148 141.947 73.6523 141.816C74.5898 141.673 75.5208 141.602 76.4453 141.602C77.3047 141.602 78.1055 141.634 78.8477 141.699C79.5898 141.764 80.2474 141.849 80.8203 141.953C80.651 141.302 80.4427 140.664 80.1953 140.039C79.9479 139.401 79.6289 138.835 79.2383 138.34C78.8607 137.832 78.3919 137.422 77.832 137.109C77.2721 136.797 76.6016 136.641 75.8203 136.641C75.3125 136.641 74.7331 136.719 74.082 136.875C73.431 137.018 72.7148 137.285 71.9336 137.676C71.1523 138.066 70.2995 138.607 69.375 139.297C68.4505 139.974 67.4609 140.846 66.4062 141.914L64.043 139.043C65.293 137.871 66.4909 136.914 67.6367 136.172C68.7826 135.43 69.8568 134.85 70.8594 134.434C71.875 134.004 72.8125 133.711 73.6719 133.555C74.5443 133.398 75.3255 133.32 76.0156 133.32C77.2135 133.32 78.2812 133.529 79.2188 133.945C80.1562 134.349 80.9766 134.909 81.6797 135.625C82.3958 136.328 82.9948 137.161 83.4766 138.125C83.9714 139.076 84.375 140.104 84.6875 141.211C85 142.305 85.2214 143.444 85.3516 144.629C85.4948 145.814 85.5664 146.992 85.5664 148.164C85.5664 149.414 85.4948 150.755 85.3516 152.188C85.2083 153.62 84.987 155.182 84.6875 156.875L80.8594 156.23ZM81.4062 149.121C81.4323 148.47 81.4518 147.826 81.4648 147.188C81.4779 146.549 81.4453 145.885 81.3672 145.195C80.7292 145 80.0586 144.844 79.3555 144.727C78.6523 144.609 77.9492 144.551 77.2461 144.551C76.0742 144.551 74.9349 144.688 73.8281 144.961C72.7344 145.234 71.7904 145.632 70.9961 146.152C70.2018 146.673 69.6029 147.311 69.1992 148.066C68.8086 148.822 68.7305 149.681 68.9648 150.645C69.1471 151.426 69.4987 151.973 70.0195 152.285C70.5534 152.598 71.1914 152.754 71.9336 152.754C72.6888 152.754 73.5026 152.63 74.375 152.383C75.2604 152.122 76.1328 151.81 76.9922 151.445C77.8646 151.068 78.6849 150.671 79.4531 150.254C80.2214 149.837 80.8724 149.46 81.4062 149.121ZM94.9414 134.512L94.9023 137.363C95.6445 136.634 96.4193 136.074 97.2266 135.684C98.0339 135.28 98.776 134.974 99.4531 134.766C100.247 134.531 101.022 134.382 101.777 134.316C102.663 134.316 103.542 134.447 104.414 134.707C105.286 134.954 106.113 135.312 106.895 135.781C107.676 136.237 108.398 136.79 109.062 137.441C109.727 138.092 110.293 138.822 110.762 139.629C111.23 140.423 111.589 141.283 111.836 142.207C112.096 143.132 112.207 144.102 112.168 145.117C112.129 146.237 111.96 147.292 111.66 148.281C111.361 149.271 110.964 150.182 110.469 151.016C109.987 151.836 109.421 152.578 108.77 153.242C108.118 153.906 107.422 154.466 106.68 154.922C105.951 155.378 105.189 155.723 104.395 155.957C103.613 156.204 102.832 156.328 102.051 156.328C101.257 156.302 100.449 156.185 99.6289 155.977C98.9128 155.794 98.125 155.508 97.2656 155.117C96.4062 154.74 95.5599 154.193 94.7266 153.477L94.6094 166.719L90.9766 166.797L90.6445 134.688L94.9414 134.512ZM107.773 145.488C107.826 144.538 107.702 143.626 107.402 142.754C107.116 141.868 106.68 141.094 106.094 140.43C105.521 139.766 104.831 139.238 104.023 138.848C103.216 138.457 102.331 138.268 101.367 138.281C100.56 138.294 99.7982 138.444 99.082 138.73C98.3789 139.004 97.7409 139.375 97.168 139.844C96.6081 140.299 96.1263 140.833 95.7227 141.445C95.332 142.057 95.0391 142.695 94.8438 143.359L94.8047 147.07C95 147.93 95.306 148.685 95.7227 149.336C96.1393 149.987 96.6276 150.534 97.1875 150.977C97.7604 151.406 98.3789 151.738 99.043 151.973C99.707 152.194 100.378 152.311 101.055 152.324C101.966 152.35 102.819 152.188 103.613 151.836C104.421 151.484 105.124 150.996 105.723 150.371C106.322 149.746 106.797 149.017 107.148 148.184C107.513 147.35 107.721 146.452 107.773 145.488ZM120.84 134.512L120.801 137.363C121.543 136.634 122.318 136.074 123.125 135.684C123.932 135.28 124.674 134.974 125.352 134.766C126.146 134.531 126.921 134.382 127.676 134.316C128.561 134.316 129.44 134.447 130.312 134.707C131.185 134.954 132.012 135.312 132.793 135.781C133.574 136.237 134.297 136.79 134.961 137.441C135.625 138.092 136.191 138.822 136.66 139.629C137.129 140.423 137.487 141.283 137.734 142.207C137.995 143.132 138.105 144.102 138.066 145.117C138.027 146.237 137.858 147.292 137.559 148.281C137.259 149.271 136.862 150.182 136.367 151.016C135.885 151.836 135.319 152.578 134.668 153.242C134.017 153.906 133.32 154.466 132.578 154.922C131.849 155.378 131.087 155.723 130.293 155.957C129.512 156.204 128.73 156.328 127.949 156.328C127.155 156.302 126.348 156.185 125.527 155.977C124.811 155.794 124.023 155.508 123.164 155.117C122.305 154.74 121.458 154.193 120.625 153.477L120.508 166.719L116.875 166.797L116.543 134.688L120.84 134.512ZM133.672 145.488C133.724 144.538 133.6 143.626 133.301 142.754C133.014 141.868 132.578 141.094 131.992 140.43C131.419 139.766 130.729 139.238 129.922 138.848C129.115 138.457 128.229 138.268 127.266 138.281C126.458 138.294 125.697 138.444 124.98 138.73C124.277 139.004 123.639 139.375 123.066 139.844C122.507 140.299 122.025 140.833 121.621 141.445C121.23 142.057 120.938 142.695 120.742 143.359L120.703 147.07C120.898 147.93 121.204 148.685 121.621 149.336C122.038 149.987 122.526 150.534 123.086 150.977C123.659 151.406 124.277 151.738 124.941 151.973C125.605 152.194 126.276 152.311 126.953 152.324C127.865 152.35 128.717 152.188 129.512 151.836C130.319 151.484 131.022 150.996 131.621 150.371C132.22 149.746 132.695 149.017 133.047 148.184C133.411 147.35 133.62 146.452 133.672 145.488ZM160.254 135.234C159.564 137.266 158.932 139.121 158.359 140.801C157.799 142.48 157.292 143.997 156.836 145.352C156.38 146.706 155.97 147.91 155.605 148.965C155.241 150.02 154.922 150.944 154.648 151.738C154.01 153.6 153.509 155.033 153.145 156.035C152.884 156.803 152.578 157.617 152.227 158.477C151.888 159.349 151.465 160.215 150.957 161.074C150.462 161.934 149.876 162.76 149.199 163.555C148.535 164.362 147.754 165.078 146.855 165.703C145.97 166.341 144.954 166.862 143.809 167.266C142.663 167.669 141.374 167.904 139.941 167.969L139.18 164.16C139.987 164.264 140.742 164.238 141.445 164.082C142.161 163.939 142.819 163.704 143.418 163.379C144.03 163.066 144.59 162.682 145.098 162.227C145.618 161.771 146.087 161.289 146.504 160.781C146.934 160.273 147.311 159.753 147.637 159.219C147.962 158.698 148.249 158.21 148.496 157.754L140.254 135.879L144.727 135.273L150.488 152.48C150.801 151.517 151.165 150.384 151.582 149.082C152.012 147.767 152.461 146.354 152.93 144.844C153.411 143.333 153.906 141.758 154.414 140.117C154.922 138.464 155.417 136.823 155.898 135.195L160.254 135.234Z" fill="#FFC30D"/>
<g clip-path="url(#clip0_473_71)">
<path d="M125.298 44.7724C124.96 44.4199 124.632 44.0574 124.295 43.7174C123.949 43.3729 123.593 43.0386 123.228 42.7149C115.849 35.8041 106.11 31.9715 96 31.9999C90.7451 31.9873 85.5399 33.0166 80.6853 35.0283C75.8308 37.04 71.4232 39.9941 67.7175 43.7199C52.4575 58.9674 52.1325 83.5649 66.715 99.2274C67.04 99.5924 67.365 99.9424 67.705 100.295L68.76 101.297C76.1499 108.197 85.8898 112.024 96 112C106.69 112 116.73 107.847 124.295 100.295C139.543 85.0349 139.868 60.4349 125.298 44.7724ZM69.775 45.7749C73.2108 42.3202 77.2978 39.5815 81.7994 37.7174C86.301 35.8532 91.1277 34.9007 96 34.9149C105.415 34.9149 114.295 38.4049 121.17 44.7724L117.838 48.1199C111.884 42.649 104.088 39.6221 96.0025 39.6424C91.7514 39.6286 87.5399 40.4595 83.6125 42.0869C79.6852 43.7143 76.1204 46.1058 73.125 49.1224C70.1095 52.1186 67.7187 55.6836 66.0914 59.6107C64.4641 63.5379 63.6325 67.749 63.645 71.9999C63.645 80.1649 66.64 87.8474 72.1225 93.8349L68.775 97.1674C55.3375 82.6349 55.66 59.8899 69.775 45.7749ZM115.765 50.1649V50.1774L112.38 53.5624C107.885 49.5164 102.048 47.2845 96 47.2999C92.7553 47.2904 89.541 47.9255 86.5437 49.1684C83.5464 50.4112 80.8259 52.2371 78.54 54.5399C76.2391 56.8272 74.4144 59.548 73.1717 62.545C71.929 65.5419 71.2928 68.7555 71.3 71.9999C71.288 78.0446 73.5145 83.8796 77.55 88.3799L74.1775 91.7649C69.2548 86.3617 66.5368 79.3093 66.56 71.9999C66.5489 68.132 67.305 64.3003 68.7846 60.7265C70.2642 57.1528 72.438 53.908 75.18 51.1799C77.908 48.4379 81.1528 46.2641 84.7266 44.7845C88.3003 43.3049 92.1321 42.5488 96 42.5599C103.382 42.5599 110.335 45.2549 115.765 50.1649ZM117.785 71.9999C117.785 77.8199 115.52 83.2899 111.405 87.4024C107.29 91.5149 101.822 93.7949 96.0025 93.7949C90.7309 93.7921 85.6402 91.8719 81.68 88.3924V88.3799C81.315 88.0674 80.95 87.7549 80.6 87.4024C80.2642 87.0515 79.9383 86.6914 79.6225 86.3224C76.131 82.3694 74.209 77.2741 74.22 71.9999C74.22 66.1799 76.485 60.7099 80.6 56.5974C82.6178 54.5682 85.0182 52.9594 87.662 51.8642C90.3059 50.7691 93.1408 50.2093 96.0025 50.2174C101.327 50.2174 106.355 52.1324 110.325 55.6199C110.69 55.9324 111.068 56.2449 111.405 56.5974C111.758 56.9499 112.07 57.3124 112.382 57.6774C115.874 61.6304 117.796 66.7258 117.785 71.9999ZM79.62 90.4499C84.1209 94.4859 89.9546 96.7162 96 96.7124C99.2459 96.7224 102.461 96.0863 105.459 94.8411C108.457 93.596 111.176 91.7667 113.46 89.4599C115.762 87.1736 117.588 84.453 118.831 81.4558C120.073 78.4586 120.709 75.2445 120.7 71.9999C120.712 65.9553 118.486 60.1202 114.45 55.6199L117.835 52.2349C122.748 57.6443 125.464 64.6927 125.452 71.9999C125.461 75.8686 124.703 79.7007 123.221 83.2744C121.739 86.8481 119.564 90.0925 116.82 92.8199C114.093 95.5636 110.848 97.7393 107.274 99.2211C103.701 100.703 99.8687 101.461 96 101.452C88.6928 101.464 81.6444 98.7475 76.235 93.8349L79.62 90.4499ZM122.225 98.2249C118.789 101.68 114.702 104.418 110.201 106.282C105.699 108.147 100.872 109.099 96 109.085C86.6639 109.108 77.6676 105.584 70.83 99.2274L74.1775 95.8949C80.1327 101.363 87.9277 104.389 96.0125 104.372C100.264 104.38 104.474 103.544 108.401 101.915C112.328 100.286 115.893 97.8948 118.89 94.8799C121.903 91.8816 124.292 88.3162 125.919 84.3896C127.546 80.4629 128.379 76.2528 128.37 72.0024C128.387 63.9214 125.36 56.1304 119.892 50.1799L123.225 46.8324C136.662 61.3649 136.34 84.1099 122.225 98.2249Z" fill="#FFC30D"/>
<path d="M99.3438 69.9531C99.3021 70.9427 99.099 71.8333 98.7344 72.625C98.3802 73.4062 97.9062 74.099 97.3125 74.7031C96.7292 75.3073 96.0521 75.8229 95.2812 76.25C94.5104 76.6771 93.6875 77.0312 92.8125 77.3125C91.9479 77.5833 91.0521 77.7865 90.125 77.9219C89.1979 78.0469 88.2917 78.1094 87.4062 78.1094C86.8229 78.1094 86.1719 78.0885 85.4531 78.0469C84.7344 78.0052 83.9635 77.9115 83.1406 77.7656L83.2031 84.0312L79.9062 84.1562V62.0469C81.0104 61.6823 82.0677 61.4062 83.0781 61.2188C84.099 61.0312 85 60.8906 85.7812 60.7969C86.6979 60.6927 87.5573 60.6302 88.3594 60.6094C89.0365 60.6094 89.7812 60.6667 90.5938 60.7812C91.4167 60.8854 92.2448 61.0729 93.0781 61.3438C93.9115 61.6146 94.7135 61.9792 95.4844 62.4375C96.2656 62.8958 96.9479 63.474 97.5312 64.1719C98.125 64.8594 98.5885 65.6823 98.9219 66.6406C99.2552 67.5885 99.3958 68.6927 99.3438 69.9531ZM88.3594 64.0625C87.7656 64.0625 87.1667 64.0833 86.5625 64.125C86.0312 64.1667 85.4583 64.2448 84.8438 64.3594C84.2292 64.4635 83.6302 64.6198 83.0469 64.8281L83.1094 74.5625C83.7552 74.6875 84.3906 74.7708 85.0156 74.8125C85.651 74.8542 86.2448 74.875 86.7969 74.875C87.3906 74.875 88.026 74.849 88.7031 74.7969C89.3802 74.7344 90.0521 74.6302 90.7188 74.4844C91.3854 74.3281 92.026 74.1146 92.6406 73.8438C93.2552 73.5729 93.7969 73.2292 94.2656 72.8125C94.7344 72.3854 95.1094 71.875 95.3906 71.2812C95.6719 70.6875 95.8125 69.9896 95.8125 69.1875C95.8125 68.3854 95.6354 67.6719 95.2812 67.0469C94.9375 66.4219 94.4375 65.8958 93.7812 65.4688C93.1354 65.0312 92.3542 64.6927 91.4375 64.4531C90.5208 64.2135 89.4948 64.0833 88.3594 64.0625ZM109.188 61.5L109.078 68.4844L115.141 68.2812L114.906 71.2031L109.047 71.3594L108.922 84.9844L105.625 85.0625L105.891 71.4531L100.484 71.5781L100.547 68.7031L105.953 68.5469L106.078 61.7031L109.188 61.5Z" fill="#FFC30D"/>
</g>
<defs>
<clipPath id="clip0_473_71">
<rect width="80" height="80" fill="white" transform="translate(56 32)"/>
</clipPath>
</defs>
</svg>
