<svg width="30" height="30" viewBox="0 0 30 30" fill="none" xmlns="http://www.w3.org/2000/svg">
<path d="M21.2883 15.6633L11.9133 25.0383C11.7822 25.1695 11.6151 25.259 11.4331 25.2952C11.2511 25.3314 11.0625 25.3129 10.8911 25.2418C10.7197 25.1708 10.5733 25.0505 10.4703 24.8962C10.3673 24.7419 10.3124 24.5605 10.3125 24.375V5.62501C10.3124 5.43948 10.3673 5.25808 10.4703 5.10377C10.5733 4.94947 10.7197 4.82919 10.8911 4.75817C11.0625 4.68715 11.2511 4.66859 11.4331 4.70482C11.6151 4.74106 11.7822 4.83046 11.9133 4.96172L21.2883 14.3367C21.3754 14.4238 21.4446 14.5272 21.4918 14.641C21.539 14.7548 21.5632 14.8768 21.5632 15C21.5632 15.1232 21.539 15.2452 21.4918 15.359C21.4446 15.4728 21.3754 15.5762 21.2883 15.6633Z" fill="#FFC30D"/>
</svg>